<svg id="visual" viewBox="0 0 900 100" width="900" height="100" xmlns="http://www.w3.org/2000/svg" xmlns:xlink="http://www.w3.org/1999/xlink" version="1.1"><path d="M0 79L16.7 69.3C33.3 59.7 66.7 40.3 100 40.2C133.3 40 166.7 59 200 62.3C233.3 65.7 266.7 53.3 300 53.3C333.3 53.3 366.7 65.7 400 59.8C433.3 54 466.7 30 500 30.7C533.3 31.3 566.7 56.7 600 60.7C633.3 64.7 666.7 47.3 700 40.8C733.3 34.3 766.7 38.7 800 42C833.3 45.3 866.7 47.7 883.3 48.8L900 50L900 101L883.3 101C866.7 101 833.3 101 800 101C766.7 101 733.3 101 700 101C666.7 101 633.3 101 600 101C566.7 101 533.3 101 500 101C466.7 101 433.3 101 400 101C366.7 101 333.3 101 300 101C266.7 101 233.3 101 200 101C166.7 101 133.3 101 100 101C66.7 101 33.3 101 16.7 101L0 101Z" fill="#202020" stroke-linecap="round" stroke-linejoin="miter"></path></svg>