<svg id="visual" viewBox="0 0 900 600" width="900" height="600" xmlns="http://www.w3.org/2000/svg" xmlns:xlink="http://www.w3.org/1999/xlink" version="1.1"><path d="M0 548L4.8 549C9.7 550 19.3 552 29 556.5C38.7 561 48.3 568 58 567.8C67.7 567.7 77.3 560.3 87 561.3C96.7 562.3 106.3 571.7 116 572.5C125.7 573.3 135.3 565.7 145 562.3C154.7 559 164.3 560 174 561.3C183.7 562.7 193.3 564.3 203 562.2C212.7 560 222.3 554 232 554.2C241.7 554.3 251.3 560.7 261 567.3C270.7 574 280.3 581 290 584.5C299.7 588 309.3 588 319 584.7C328.7 581.3 338.3 574.7 348 574.7C357.7 574.7 367.3 581.3 377 582.7C386.7 584 396.3 580 406 575.7C415.7 571.3 425.3 566.7 435.2 566.8C445 567 455 572 464.8 572.2C474.7 572.3 484.3 567.7 494 565C503.7 562.3 513.3 561.7 523 562.8C532.7 564 542.3 567 552 567.7C561.7 568.3 571.3 566.7 581 566.8C590.7 567 600.3 569 610 568.2C619.7 567.3 629.3 563.7 639 565C648.7 566.3 658.3 572.7 668 570.8C677.7 569 687.3 559 697 557.7C706.7 556.3 716.3 563.7 726 568.7C735.7 573.7 745.3 576.3 755 575.2C764.7 574 774.3 569 784 564C793.7 559 803.3 554 813 557.7C822.7 561.3 832.3 573.7 842 573.8C851.7 574 861.3 562 871 556.2C880.7 550.3 890.3 550.7 895.2 550.8L900 551L900 601L895.2 601C890.3 601 880.7 601 871 601C861.3 601 851.7 601 842 601C832.3 601 822.7 601 813 601C803.3 601 793.7 601 784 601C774.3 601 764.7 601 755 601C745.3 601 735.7 601 726 601C716.3 601 706.7 601 697 601C687.3 601 677.7 601 668 601C658.3 601 648.7 601 639 601C629.3 601 619.7 601 610 601C600.3 601 590.7 601 581 601C571.3 601 561.7 601 552 601C542.3 601 532.7 601 523 601C513.3 601 503.7 601 494 601C484.3 601 474.7 601 464.8 601C455 601 445 601 435.2 601C425.3 601 415.7 601 406 601C396.3 601 386.7 601 377 601C367.3 601 357.7 601 348 601C338.3 601 328.7 601 319 601C309.3 601 299.7 601 290 601C280.3 601 270.7 601 261 601C251.3 601 241.7 601 232 601C222.3 601 212.7 601 203 601C193.3 601 183.7 601 174 601C164.3 601 154.7 601 145 601C135.3 601 125.7 601 116 601C106.3 601 96.7 601 87 601C77.3 601 67.7 601 58 601C48.3 601 38.7 601 29 601C19.3 601 9.7 601 4.8 601L0 601Z" fill="#333" stroke-linecap="round" stroke-linejoin="miter"></path></svg>